<svg xmlns="http://www.w3.org/2000/svg" width="805" height="600"><rect width="805" height="600" x="0" y="0" fill="#FFFFFF" id="background"/><g transform="translate(20,20)" id="viz"><g id="nodes"><g transform="translate(383.5,281)"><path id="p_943.5" d="M-5.143516556418883e-14,280A280,280,0,1,1,5.143516556418883e-14,-280A280,280,0,1,1,-5.143516556418883e-14,280Z" fill="none" stroke="#ccc"/></g><g transform="translate(291.29027151851596,303.14154073976)" id="Comida"><path id="p_710.3051774317335" d="M-2.1469288884788166e-14,116.87336517345747A116.87336517345747,116.87336517345747,0,1,1,2.1469288884788166e-14,-116.87336517345747A116.87336517345747,116.87336517345747,0,1,1,-2.1469288884788166e-14,116.87336517345747Z" fill="#1f77b4" stroke="none"/></g><g transform="translate(508.68543946646406,303.14154073976)" id="Supermercado"><path id="p_909.383255341351" d="M-1.8104494032017843e-14,98.55627513512684A98.55627513512684,98.55627513512684,0,1,1,1.8104494032017843e-14,-98.55627513512684A98.55627513512684,98.55627513512684,0,1,1,-1.8104494032017843e-14,98.55627513512684Z" fill="#17becf" stroke="none"/></g><g transform="translate(415.7115660319095,454.29358893602904)" id="Deporte"><path id="p_945.9406225864972" d="M-1.4132816123995897e-14,76.93546761855862A76.93546761855862,76.93546761855862,0,1,1,1.4132816123995897e-14,-76.93546761855862A76.93546761855862,76.93546761855862,0,1,1,-1.4132816123995897e-14,76.93546761855862Z" fill="#ff7f0e" stroke="none"/></g><g transform="translate(415.6279191639535,153.20814787742745)" id="Servicios"><path id="p_643.7787773568108" d="M-1.3950449565954882e-14,75.94271031542988A75.94271031542988,75.94271031542988,0,1,1,1.3950449565954882e-14,-75.94271031542988A75.94271031542988,75.94271031542988,0,1,1,-1.3950449565954882e-14,75.94271031542988Z" fill="#bcbd22" stroke="none"/></g><g transform="translate(269.61280314019143,111.60825086645178)" id="Impuestos"><path id="p_454.1382603579883" d="M-1.3578370524013382e-14,73.91720635134513A73.91720635134513,73.91720635134513,0,1,1,1.3578370524013382e-14,-73.91720635134513A73.91720635134513,73.91720635134513,0,1,1,-1.3578370524013382e-14,73.91720635134513Z" fill="#8c564b" stroke="none"/></g><g transform="translate(282.4858371171451,478.2143841975326)" id="Meli"><path id="p_816.1554201921293" d="M-1.0370651790074751e-14,56.4551988774516A56.4551988774516,56.4551988774516,0,1,1,1.0370651790074751e-14,-56.4551988774516A56.4551988774516,56.4551988774516,0,1,1,-1.0370651790074751e-14,56.4551988774516Z" fill="#e377c2" stroke="none"/></g><g transform="translate(547.2343604691589,153.81564398050824)" id="Vehiculos"><path id="p_753.7496098953932" d="M-9.864457488687626e-15,53.69960544572605A53.69960544572605,53.69960544572605,0,1,1,9.864457488687626e-15,-53.69960544572605A53.69960544572605,53.69960544572605,0,1,1,-9.864457488687626e-15,53.69960544572605Z" fill="#cccccc" stroke="none"/></g><g transform="translate(532.763594455592,440.52712515113296)" id="Entretenimiento"><path id="p_1011.2485079978775" d="M-7.156429628262722e-15,38.95778839115249A38.95778839115249,38.95778839115249,0,1,1,7.156429628262722e-15,-38.95778839115249A38.95778839115249,38.95778839115249,0,1,1,-7.156429628262722e-15,38.95778839115249Z" fill="#d62728" stroke="none"/></g><g transform="translate(206.27471457770474,428.4587566379055)" id="Regalos"><path id="p_666.3278954846609" d="M-5.9874986026715325e-15,32.59442426905054A32.59442426905054,32.59442426905054,0,1,1,5.9874986026715325e-15,-32.59442426905054A32.59442426905054,32.59442426905054,0,1,1,-5.9874986026715325e-15,32.59442426905054Z" fill="#7f7f7f" stroke="none"/></g><g transform="translate(192.75009885689025,188.1550898238554)" id="Educación"><path id="p_412.4996129497962" d="M-5.9874986026715325e-15,32.59442426905054A32.59442426905054,32.59442426905054,0,1,1,5.9874986026715325e-15,-32.59442426905054A32.59442426905054,32.59442426905054,0,1,1,-5.9874986026715325e-15,32.59442426905054Z" fill="#2ca02c" stroke="none"/></g><g transform="translate(596.2298729033594,403.4206615801454)" id="General"><path id="p_1031.2449587525552" d="M-5.9874986026715325e-15,32.59442426905054A32.59442426905054,32.59442426905054,0,1,1,5.9874986026715325e-15,-32.59442426905054A32.59442426905054,32.59442426905054,0,1,1,-5.9874986026715325e-15,32.59442426905054Z" fill="#9467bd" stroke="none"/></g></g><g id="labels"><g transform="translate(291.29027151851596,303.14154073976)"><text text-anchor="middle" dominant-baseline="text-before-edge" transform="translate(0,-5.599999904632568)"><tspan x="0" y="0" dy="0" style="font-family: Arial, sans-serif; font-size: 10px; fill: black; font-weight: bold;">Comida</tspan></text></g><g transform="translate(508.68543946646406,303.14154073976)"><text text-anchor="middle" dominant-baseline="text-before-edge" transform="translate(0,-5.599999904632568)"><tspan x="0" y="0" dy="0" style="font-family: Arial, sans-serif; font-size: 10px; fill: black; font-weight: bold;">Supermercado</tspan></text></g><g transform="translate(415.7115660319095,454.29358893602904)"><text text-anchor="middle" dominant-baseline="text-before-edge" transform="translate(0,-5.599999904632568)"><tspan x="0" y="0" dy="0" style="font-family: Arial, sans-serif; font-size: 10px; fill: black; font-weight: bold;">Deporte</tspan></text></g><g transform="translate(415.6279191639535,153.20814787742745)"><text text-anchor="middle" dominant-baseline="text-before-edge" transform="translate(0,-5.599999904632568)"><tspan x="0" y="0" dy="0" style="font-family: Arial, sans-serif; font-size: 10px; fill: black; font-weight: bold;">Servicios</tspan></text></g><g transform="translate(269.61280314019143,111.60825086645178)"><text text-anchor="middle" dominant-baseline="text-before-edge" transform="translate(0,-5.599999904632568)"><tspan x="0" y="0" dy="0" style="font-family: Arial, sans-serif; font-size: 10px; fill: black; font-weight: bold;">Impuestos</tspan></text></g><g transform="translate(282.4858371171451,478.2143841975326)"><text text-anchor="middle" dominant-baseline="text-before-edge" transform="translate(0,-5.599999904632568)"><tspan x="0" y="0" dy="0" style="font-family: Arial, sans-serif; font-size: 10px; fill: black; font-weight: bold;">Meli</tspan></text></g><g transform="translate(547.2343604691589,153.81564398050824)"><text text-anchor="middle" dominant-baseline="text-before-edge" transform="translate(0,-5.599999904632568)"><tspan x="0" y="0" dy="0" style="font-family: Arial, sans-serif; font-size: 10px; fill: black; font-weight: bold;">Vehiculos</tspan></text></g><g transform="translate(532.763594455592,440.52712515113296)"><text text-anchor="middle" dominant-baseline="text-before-edge" transform="translate(0,-5.599999904632568)"><tspan x="0" y="0" dy="0" style="font-family: Arial, sans-serif; font-size: 10px; fill: black; font-weight: bold;">Entretenimiento</tspan></text></g><g transform="translate(206.27471457770474,428.4587566379055)"><text text-anchor="middle" dominant-baseline="text-before-edge" transform="translate(0,-5.599999904632568)"><tspan x="0" y="0" dy="0" style="font-family: Arial, sans-serif; font-size: 10px; fill: black; font-weight: bold;">Regalos</tspan></text></g><g transform="translate(192.75009885689025,188.1550898238554)"><text text-anchor="middle" dominant-baseline="text-before-edge" transform="translate(0,-5.599999904632568)"><tspan x="0" y="0" dy="0" style="font-family: Arial, sans-serif; font-size: 10px; fill: black; font-weight: bold;">Educación</tspan></text></g><g transform="translate(596.2298729033594,403.4206615801454)"><text text-anchor="middle" dominant-baseline="text-before-edge" transform="translate(0,-5.599999904632568)"><tspan x="0" y="0" dy="0" style="font-family: Arial, sans-serif; font-size: 10px; fill: black; font-weight: bold;">General</tspan></text></g></g></g></svg>
